<svg xmlns="http://www.w3.org/2000/svg" width="24" height="24" fill="none" viewBox="0 0 24 24" id="cart"><path fill="url(#paint0_linear_2721_2177)" fill-rule="evenodd" d="M1 2C1 1.44772 1.44772 1 2 1H4C4.52009 1 4.95335 1.39866 4.99655 1.91695L5.0868 3H19.2192C20.755 3 22 4.245 22 5.78078C22 6.00814 21.9721 6.23464 21.917 6.45521L20.3489 12.7276C20.015 14.0631 18.815 15 17.4384 15H5C4.47991 15 4.04665 14.6013 4.00345 14.083L3.07987 3H2C1.44772 3 1 2.55228 1 2Z" clip-rule="evenodd" opacity=".2"></path><path fill="url(#paint1_linear_2721_2177)" fill-rule="evenodd" d="M2 1C1.44772 1 1 1.44772 1 2C1 2.55228 1.44772 3 2 3H3.07987L3.97848 13.7833C3.37723 14.332 3 15.1219 3 16C3 17.0623 3.55209 17.9956 4.38499 18.5286C4.13986 18.9634 4 19.4653 4 20C4 21.6569 5.34315 23 7 23C8.65685 23 10 21.6569 10 20C10 19.6494 9.93985 19.3128 9.82929 19H14.1707C14.0602 19.3128 14 19.6494 14 20C14 21.6569 15.3431 23 17 23C18.6569 23 20 21.6569 20 20C20 18.3431 18.6569 17 17 17H6C5.44772 17 5 16.5523 5 16C5 15.4477 5.44772 15 6 15H17.4384C18.815 15 20.015 14.0631 20.3489 12.7276L21.917 6.45521C21.9721 6.23464 22 6.00814 22 5.78078C22 4.245 20.755 3 19.2192 3H5.0868L4.99655 1.91695C4.95335 1.39866 4.52009 1 4 1H2ZM17.4384 13C17.8973 13 18.2973 12.6877 18.4086 12.2425L19.9767 5.97014C19.9922 5.90821 20 5.84461 20 5.78078C20 5.34957 19.6504 5 19.2192 5H5.25347L5.92013 13H17.4384ZM6 20C6 19.4477 6.44772 19 7 19C7.55228 19 8 19.4477 8 20C8 20.5523 7.55228 21 7 21C6.44772 21 6 20.5523 6 20ZM17 19C16.4477 19 16 19.4477 16 20C16 20.5523 16.4477 21 17 21C17.5523 21 18 20.5523 18 20C18 19.4477 17.5523 19 17 19Z" clip-rule="evenodd"></path><defs><linearGradient id="paint0_linear_2721_2177" x1="1" x2="13.923" y1="1" y2="20.385" gradientUnits="userSpaceOnUse"><stop stop-color="#4EA2EA"></stop><stop offset=".245" stop-color="#484DFF"></stop><stop offset=".484" stop-color="#CD0EF3"></stop><stop offset=".724" stop-color="#F640BB"></stop><stop offset=".95" stop-color="#FB6D64"></stop></linearGradient><linearGradient id="paint1_linear_2721_2177" x1="1" x2="22.976" y1="1" y2="21.977" gradientUnits="userSpaceOnUse"><stop stop-color="#4EA2EA"></stop><stop offset=".245" stop-color="#484DFF"></stop><stop offset=".484" stop-color="#CD0EF3"></stop><stop offset=".724" stop-color="#F640BB"></stop><stop offset=".95" stop-color="#FB6D64"></stop></linearGradient></defs></svg>